<?xml version="1.0" standalone="no"?>
<!DOCTYPE svg PUBLIC "-//W3C//DTD SVG 20010904//EN"
 "http://www.w3.org/TR/2001/REC-SVG-20010904/DTD/svg10.dtd">
<svg version="1.0" xmlns="http://www.w3.org/2000/svg"
 width="512.000000pt" height="512.000000pt" viewBox="0 0 512.000000 512.000000"
 preserveAspectRatio="xMidYMid meet">

<g transform="translate(0.000000,512.000000) scale(0.100000,-0.100000)"
fill="#000000" stroke="none">
<path d="M481 5068 c-66 -81 -117 -174 -153 -278 -31 -91 -32 -101 -32 -250 0
-149 1 -159 32 -250 69 -200 46 -174 889 -1020 l763 -765 -268 -267 -267 -266
-55 19 c-101 36 -225 52 -360 46 -159 -6 -262 -32 -405 -102 -447 -217 -669
-721 -529 -1202 48 -166 138 -315 267 -440 349 -340 875 -388 1284 -116 188
125 339 335 409 568 36 121 45 339 19 466 -28 140 -91 296 -151 375 -13 17
-24 35 -24 40 0 5 149 158 330 339 l330 330 330 -330 c182 -181 330 -334 330
-339 0 -5 -11 -23 -24 -40 -60 -79 -123 -235 -151 -375 -26 -127 -17 -345 19
-466 117 -394 422 -663 827 -731 435 -72 873 158 1074 565 78 157 115 366 96
538 -26 242 -123 451 -288 619 -127 130 -298 229 -473 274 -171 44 -414 36
-570 -19 l-55 -19 -267 266 -268 267 763 765 c843 846 820 820 889 1020 31 91
32 101 32 250 0 149 -1 159 -32 250 -36 104 -87 197 -153 278 l-43 53 -1018
-1018 -1018 -1018 -1018 1018 -1018 1018 -43 -53z m746 -3610 c205 -73 336
-292 303 -505 -36 -227 -230 -393 -458 -393 -281 0 -500 257 -454 533 48 284
340 459 609 365z m3019 -22 c183 -87 289 -290 256 -488 -55 -324 -414 -490
-694 -321 -205 123 -280 380 -173 598 111 228 380 321 611 211z"/>
</g>
</svg>
